<?xml version="1.0" encoding="UTF-8"?>
<!DOCTYPE svg PUBLIC "-//W3C//DTD SVG 1.1//EN" "http://www.w3.org/Graphics/SVG/1.1/DTD/svg11.dtd">
<svg xmlns="http://www.w3.org/2000/svg" version="1.1" width="307px" height="355px" style="shape-rendering:geometricPrecision; text-rendering:geometricPrecision; image-rendering:optimizeQuality; fill-rule:evenodd; clip-rule:evenodd" xmlns:xlink="http://www.w3.org/1999/xlink">
<g><path style="opacity:0.988" fill="#f9faff" d="M 184.5,-0.5 C 197.833,-0.5 211.167,-0.5 224.5,-0.5C 253.46,2.70747 280.794,11.3741 306.5,25.5C 306.5,37.1667 306.5,48.8333 306.5,60.5C 246.026,22.1027 183.692,18.936 119.5,51C 61.745,85.8048 31.4116,137.138 28.5,205C 29.6674,250.868 45.5007,290.701 76,324.5C 87.1298,271.705 118.296,236.872 169.5,220C 223.801,207.16 269.468,221.327 306.5,262.5C 306.5,287.167 306.5,311.833 306.5,336.5C 298.465,286.297 269.465,256.13 219.5,246C 179.452,242.001 147.286,255.834 123,287.5C 110.115,306.157 104.115,326.824 105,349.5C 107.326,351.066 109.492,352.732 111.5,354.5C 109.167,354.5 106.833,354.5 104.5,354.5C 103.911,352.648 103.244,350.815 102.5,349C 93.7306,342.734 85.3972,335.9 77.5,328.5C 75.6454,337.132 75.312,345.799 76.5,354.5C 71.8333,354.5 67.1667,354.5 62.5,354.5C 26.8008,318.767 5.80077,275.767 -0.5,225.5C -0.5,212.167 -0.5,198.833 -0.5,185.5C 9.82346,107.691 50.1568,51.5248 120.5,17C 141.1,8.01928 162.434,2.18594 184.5,-0.5 Z"/></g>
<g><path style="opacity:0.989" fill="#f9faff" d="M 193.5,84.5 C 226.661,81.4791 248.827,95.4791 260,126.5C 265.551,151.851 258.384,172.684 238.5,189C 216.907,202.218 194.907,202.885 172.5,191C 148.382,172.976 140.882,149.476 150,120.5C 158.645,101.349 173.145,89.3487 193.5,84.5 Z M 203.5,113.5 C 221.977,114.744 232.31,124.577 234.5,143C 232.695,160.805 222.861,170.639 205,172.5C 187.195,170.695 177.361,160.861 175.5,143C 177.295,125.85 186.629,116.017 203.5,113.5 Z"/></g>
<g><path style="opacity:0.984" fill="#f8f9ff" d="M 306.5,349.5 C 306.5,351.167 306.5,352.833 306.5,354.5C 303.833,354.5 301.167,354.5 298.5,354.5C 300.822,352.336 303.489,350.669 306.5,349.5 Z"/></g>
</svg>
